<svg width="207" height="33" viewBox="0 0 207 33" fill="none" xmlns="http://www.w3.org/2000/svg">
<g clip-path="url(#clip0_4088_4108)">
<path d="M202.897 9.63277C200.466 9.63277 199.023 10.8939 199.023 12.9081C199.023 14.3151 199.747 15.3544 201.062 16.2768L203.177 17.7948C204.101 18.4604 204.475 18.9274 204.475 19.5346C204.475 20.2936 203.843 20.8482 202.622 20.8482C201.401 20.8482 200.174 20.3461 199.175 19.739L198.099 21.905C199.303 22.6464 200.881 23.1485 202.546 23.1485C205.269 23.1485 206.958 21.8349 206.958 19.4062C206.958 17.8707 206.274 16.849 204.755 15.7981L202.511 14.2042C201.787 13.6846 201.512 13.3518 201.512 12.8497C201.512 12.2367 201.939 11.9039 202.885 11.9039C203.773 11.9039 204.702 12.2016 205.591 12.6979L206.648 10.5494C205.556 10.0123 204.258 9.62109 202.903 9.62109M182.831 9.71451H182.463V22.8625H184.818V16.6972C184.818 15.5879 184.742 14.8289 184.613 14.3969L184.689 14.3793C184.876 14.788 185.168 15.2317 185.636 15.693L192.992 23.0435H193.384V9.90717H191.012V16.0725C191.012 17.1818 191.087 17.9407 191.216 18.3669L191.14 18.3845C190.953 17.9758 190.655 17.5321 190.211 17.0708L182.837 9.72035L182.831 9.71451ZM170.577 11.9739C173.119 11.9739 174.878 13.7897 174.878 16.3819C174.878 18.9741 173.119 20.7899 170.577 20.7899C168.036 20.7899 166.294 18.9741 166.294 16.3819C166.294 13.7897 168.053 11.9739 170.577 11.9739ZM170.577 9.62109C166.633 9.62109 163.793 12.4527 163.793 16.3819C163.793 20.3111 166.627 23.1427 170.577 23.1427C174.527 23.1427 177.379 20.3111 177.379 16.3819C177.379 12.4527 174.545 9.62109 170.577 9.62109ZM158.447 9.8955H156.074V22.8566H158.447V9.90717V9.8955ZM150.395 9.8955H140.87V12.0966H144.002C144.241 12.0966 144.353 12.079 144.487 12.0207L144.522 12.0557C144.487 12.1491 144.446 12.3126 144.446 12.5578V22.8566H146.818V12.5753C146.818 12.3359 146.801 12.1666 146.76 12.0732L146.795 12.0382C146.906 12.0907 147.017 12.1141 147.274 12.1141H150.389V9.91301L150.395 9.8955ZM124.947 9.70867H124.573V22.8566H126.928V16.6913C126.928 15.582 126.852 14.8231 126.723 14.391L126.799 14.3735C126.986 14.7822 127.284 15.2259 127.746 15.6871L135.103 23.0376H135.494V9.90717H133.122V16.0725C133.122 17.1818 133.198 17.9407 133.326 18.3669L133.25 18.3845C133.063 17.9758 132.771 17.5321 132.327 17.0708L124.953 9.72035L124.947 9.70867ZM118.513 9.8955H110.841V22.8566H118.589V20.6906H113.657C113.4 20.6906 113.289 20.7256 113.178 20.784L113.143 20.749C113.178 20.6556 113.219 20.4687 113.219 20.2294V17.4503C113.219 17.2109 113.184 17.0241 113.143 16.9307L113.178 16.8957C113.289 16.9541 113.4 16.9891 113.657 16.9891H117.958V14.8406H113.657C113.4 14.8406 113.289 14.8581 113.178 14.9165L113.143 14.8814C113.178 14.788 113.219 14.6012 113.219 14.3618V12.5286C113.219 12.2892 113.184 12.1024 113.143 12.009L113.178 11.9739C113.289 12.0265 113.4 12.0674 113.657 12.0674H118.513V9.90133V9.8955ZM106.096 9.8955H103.297L100.551 16.5804C100.183 17.4678 100.048 18.0458 99.9373 18.7289H99.8614C99.7679 18.0458 99.6218 17.4678 99.2712 16.5804L96.5307 9.8955H93.7317L99.7153 23.0084H100.107L106.096 9.8955ZM78.7845 9.70867H78.4105V22.8566H80.7654V16.6913C80.7654 15.582 80.6894 14.8231 80.5609 14.391L80.6368 14.3735C80.8238 14.7822 81.1218 15.2259 81.5834 15.6871L88.9402 23.0376H89.3317V9.90717H86.9593V16.0725C86.9593 17.1818 87.0353 17.9407 87.1638 18.3669L87.0879 18.3845C86.9009 17.9758 86.6087 17.5321 86.1588 17.0708L78.7845 9.72035V9.70867ZM71.4979 9.8955H69.1255V22.8566H71.4979V9.90717V9.8955ZM63.8781 9.8955H61.0792L58.3328 16.5804C57.9589 17.4678 57.8303 18.0458 57.7193 18.7289H57.6433C57.5498 18.0458 57.4037 17.4678 57.0473 16.5804L54.3068 9.8955H51.5078L57.4914 23.0084H57.8829L63.8723 9.8955H63.8781Z" fill="black"/>
<path d="M35.5099 13.3035C35.5099 10.8864 35.1067 8.05482 34.3471 5.1123C33.9147 3.37831 31.8754 2.42666 30.1691 2.41498H30.0873C27.5396 2.41498 25.1439 3.5593 22.9585 5.8129C22.8007 5.97637 22.6546 6.13985 22.5027 6.30916C22.1696 6.12233 21.8015 5.91799 21.3808 5.67862C18.7279 4.16648 14.7252 1.88953 11.5289 0.914523C10.6933 0.64012 9.82264 0.5 8.9403 0.5C4.8675 0.5 1.69457 2.81782 0.847283 6.42593C0.549273 7.75123 0.327227 9.05318 0.181143 10.2968C0.0584333 11.3535 0 12.3694 0 13.3035C0 24.7875 7.00616 32.5409 17.7579 32.5C27.3351 32.465 34.0199 26.469 35.2937 16.7656C35.4398 15.6564 35.5158 14.4945 35.5158 13.3093M29.7776 19.6556C27.8844 20.7532 25.6756 21.5589 23.4551 21.3254C21.0652 21.0743 19.096 19.714 17.3196 17.8924C15.8646 16.3978 14.6259 14.7047 13.3871 13.0349C13.2527 12.8481 13.1183 12.6671 12.978 12.4861C12.867 12.3402 12.756 12.1884 12.645 12.0424C12.7735 12.0132 12.9079 11.9899 13.0365 11.9724C13.7786 11.8498 14.5207 11.733 15.2686 11.6337C16.9807 11.4002 18.7805 11.2075 20.4984 11.4177C22.8474 11.7038 25.4652 13.5779 27.7675 15.2302C28.9128 16.0475 29.988 16.824 30.9521 17.3378C31.367 17.5597 31.8286 17.7231 32.2961 17.8049C32.3487 17.8107 32.4013 17.8341 32.448 17.8399C31.9864 18.2019 31.069 18.8499 30.9755 18.9142C31.0515 18.8616 30.2217 19.4046 29.7776 19.6673M30.0873 3.64103H30.1574C31.3904 3.65271 32.8863 4.32996 33.1668 5.41589C33.2077 5.60272 33.231 5.79538 33.231 5.98805C33.231 7.06814 32.6 8.05482 31.5482 8.44599C30.5957 8.80213 29.5965 8.83716 28.6557 8.7963C26.967 8.72624 23.7122 6.97473 23.6421 6.9397C23.6246 6.92802 23.6129 6.92218 23.5954 6.91635C23.6713 6.83461 23.7531 6.75287 23.8291 6.67114C25.7983 4.63355 27.8435 3.64103 30.0815 3.64103M2.02764 6.68865C2.74052 3.66439 5.45183 1.70854 8.9403 1.70854C9.69409 1.70854 10.4362 1.82531 11.1608 2.06468C14.2402 3.00465 18.1786 5.24074 20.7847 6.72368C21.3924 7.06814 21.9183 7.3659 22.3391 7.5936C24.5186 8.77878 26.7858 9.88807 28.5914 9.98732C28.8018 9.999 29.0121 10.0048 29.2167 10.0048C30.7885 10.0048 32.4889 9.72459 33.5466 8.42848C33.6284 8.32923 33.7102 8.23581 33.7803 8.13072C34.1251 9.98148 34.3004 11.733 34.3004 13.3035C34.3004 14.3427 34.2419 15.3644 34.1251 16.3394C34.1192 16.3394 34.0666 16.3686 34.0491 16.3803C34.0082 16.4037 33.9614 16.427 33.9089 16.4504C33.1434 16.789 32.2494 16.6489 31.5248 16.2635C30.6366 15.7848 29.5848 15.0375 28.4746 14.2376C28.1707 14.0216 27.861 13.7998 27.5513 13.5779C25.3659 12.0307 22.9701 10.4894 20.6445 10.2092C18.9558 10.0048 17.2261 10.145 15.5491 10.361C14.322 10.5186 13.0657 10.7288 11.8152 10.9448C11.6458 10.7346 11.2075 10.1858 11.1549 10.1216C9.73499 8.34674 8.12223 6.84629 5.92514 6.24494C4.68051 5.90631 3.57028 6.04059 2.52432 6.61275C2.33733 6.712 2.15619 6.82877 1.98089 6.96305C1.97505 6.96305 1.9692 6.96889 1.96336 6.97473C1.98089 6.88132 2.00426 6.7879 2.02179 6.69449M17.7579 31.2856C7.77748 31.2798 1.20957 24.2271 1.20957 13.2977C1.20957 12.4044 1.268 11.4411 1.38487 10.431C1.41409 10.1917 1.47836 9.88807 1.54264 9.65453C1.6186 9.40932 1.7121 9.16995 1.83481 8.93642C2.44836 7.73955 3.77479 7.25497 4.45846 7.25497C7.02369 7.26665 8.87018 9.2225 10.296 10.9623C10.5998 11.3301 10.892 11.7038 11.1783 12.0833C11.5873 12.6204 11.9964 13.1692 12.4112 13.7355C13.3286 14.9791 14.246 16.2285 15.2569 17.3962C17.4657 19.9767 20.0251 22.1544 23.3207 22.5047C25.6639 22.7558 27.9896 21.9851 30.0172 20.87C30.4847 20.6131 30.9346 20.3387 31.3845 20.0468C31.8637 19.7315 32.3253 19.4046 32.7811 19.0601C33.0324 18.8675 33.2895 18.6689 33.5466 18.4646C33.6284 18.4004 33.7102 18.342 33.792 18.2719C32.0857 26.3405 26.0671 31.2856 17.7404 31.2798" fill="black"/>
</g>
<defs>
<clipPath id="clip0_4088_4108">
<rect width="206.953" height="32" fill="white" transform="translate(0 0.5)"/>
</clipPath>
</defs>
</svg>
